<?xml version="1.0" encoding="UTF-8"?>
<svg width="43px" height="43px" viewBox="0 0 43 43" version="1.1" xmlns="http://www.w3.org/2000/svg" xmlns:xlink="http://www.w3.org/1999/xlink">
    <!-- Generator: Sketch 60.1 (88133) - https://sketch.com -->
    <title>warehouse 3</title>
    <desc>Created with Sketch.</desc>
    <g id="Page-1" stroke="none" stroke-width="1" fill="none" fill-rule="evenodd">
        <g id="Icon-library" transform="translate(-516.000000, -550.000000)" fill="#B4BECC" fill-rule="nonzero">
            <g id="warehouse-3" transform="translate(516.000000, 550.000000)">
                <g id="warehouse-2">
                    <g id="warehouse">
                        <path d="M42.6460891,12.2819755 L21.8626872,0.0985208163 C21.6440755,-0.029052427 21.3753249,-0.033335663 21.1539417,0.0891984792 L0.370539786,11.556009 C0.141933871,11.6813986 0,11.9221837 0,12.1830412 L0,42.2832719 C0,42.6795972 0.321072892,43 0.716640071,43 L4.30000839,43 C4.69557557,43 5.01664847,42.6795972 5.01664847,42.2832719 L5.01664847,17.1998023 L37.9833515,17.1998023 L37.9833515,42.2833558 C37.9833515,42.6796811 38.3036685,43 38.6999916,43 L42.2833599,43 C42.6796829,43 43,42.6796811 43,42.2833558 L43,12.8997693 C43,12.6452947 42.8653727,12.4102206 42.6460891,12.2819755 Z M41.5667198,41.5666277 L39.4167156,41.5666277 L39.4167156,16.4830741 C39.4167156,16.0875047 39.0963986,15.76643 38.7000756,15.76643 L4.30000839,15.76643 C3.90444122,15.76643 3.58336832,16.0875047 3.58336832,16.4830741 L3.58336832,41.5666277 L1.43336413,41.5666277 L1.43336413,12.6059057 L21.489292,1.5404596 L41.5667198,13.3103721 L41.5667198,41.5666277 Z" id="Shape"></path>
                        <path d="M35.9186746,33.0462963 L27.386881,33.0462963 C26.9937019,33.0462963 26.6759259,33.3640723 26.6759259,33.7572513 L26.6759259,42.289045 C26.6759259,42.682224 26.9937019,43 27.386881,43 L35.9186746,43 C36.3118536,43 36.6296296,42.682224 36.6296296,42.289045 L36.6296296,33.7572513 C36.6296296,33.3640723 36.3118536,33.0462963 35.9186746,33.0462963 Z M35.2076362,41.5780899 L28.097836,41.5780899 L28.097836,34.4682897 L35.2076362,34.4682897 L35.2076362,41.5780899 L35.2076362,41.5780899 Z" id="Shape"></path>
                        <path d="M32.3828301,33.8425926 L32.3828301,35.9926262 L30.9228965,35.9926262 L30.9228965,33.8425926 L29.462963,33.8425926 L29.462963,36.7092761 C29.462963,37.1056045 29.7892175,37.4259259 30.192887,37.4259259 L33.1126686,37.4259259 C33.516338,37.4259259 33.8425926,37.1056045 33.8425926,36.7092761 L33.8425926,33.8425926 L32.3828301,33.8425926 Z" id="Path"></path>
                        <path d="M27.1594153,33.0462963 L18.6276217,33.0462963 C18.2351925,33.0462963 17.9166667,33.3640723 17.9166667,33.7572513 L17.9166667,42.289045 C17.9166667,42.682224 18.2351925,43 18.6276217,43 L27.1594153,43 C27.5525944,43 27.8703704,42.682224 27.8703704,42.289045 L27.8703704,33.7572513 C27.8703704,33.3640723 27.5525944,33.0462963 27.1594153,33.0462963 Z M26.448377,41.5780899 L19.3385767,41.5780899 L19.3385767,34.4682897 L26.448377,34.4682897 L26.448377,41.5780899 Z" id="Shape"></path>
                        <path d="M23.6235708,33.8425926 L23.6235708,35.9926262 L22.1636373,35.9926262 L22.1636373,33.8425926 L20.7037037,33.8425926 L20.7037037,36.7092761 C20.7037037,37.1056045 21.0307281,37.4259259 21.4336277,37.4259259 L24.3534093,37.4259259 C24.7570788,37.4259259 25.0833333,37.1056045 25.0833333,36.7092761 L25.0833333,33.8425926 L23.6235708,33.8425926 Z" id="Path"></path>
                        <path d="M35.9186746,24.287037 L27.386881,24.287037 C26.9937019,24.287037 26.6759259,24.604813 26.6759259,24.9979921 L26.6759259,33.5297857 C26.6759259,33.9229648 26.9937019,34.2407407 27.386881,34.2407407 L35.9186746,34.2407407 C36.3118536,34.2407407 36.6296296,33.9229648 36.6296296,33.5297857 L36.6296296,24.9979921 C36.6296296,24.604813 36.3118536,24.287037 35.9186746,24.287037 Z M35.2076362,32.8188307 L28.097836,32.8188307 L28.097836,25.7090304 L35.2076362,25.7090304 L35.2076362,32.8188307 L35.2076362,32.8188307 Z" id="Shape"></path>
                        <path d="M32.3828301,25.0833333 L32.3828301,27.2333669 L30.9228965,27.2333669 L30.9228965,25.0833333 L29.462963,25.0833333 L29.462963,27.9500168 C29.462963,28.3463453 29.7892175,28.6666667 30.192887,28.6666667 L33.1126686,28.6666667 C33.516338,28.6666667 33.8425926,28.3463453 33.8425926,27.9500168 L33.8425926,25.0833333 L32.3828301,25.0833333 Z" id="Path"></path>
                        <rect id="Rectangle" x="4.37962963" y="21.5" width="34.2407407" height="1.59259259"></rect>
                        <rect id="Rectangle" x="4.37962963" y="18.712963" width="34.2407407" height="1.59259259"></rect>
                        <path d="M25.1497127,9.9537037 L17.8502873,9.9537037 C17.4473916,9.9537037 17.1203704,10.2807281 17.1203704,10.6836277 L17.1203704,13.6034093 C17.1203704,14.0063089 17.4473916,14.3333333 17.8502873,14.3333333 L25.1497127,14.3333333 C25.5533783,14.3333333 25.8796296,14.0063089 25.8796296,13.6034093 L25.8796296,10.6836277 C25.8796296,10.2807281 25.5533783,9.9537037 25.1497127,9.9537037 Z M24.4197103,12.8735708 L18.5801186,12.8735708 L18.5801186,11.4136373 L24.4197103,11.4136373 L24.4197103,12.8735708 Z" id="Shape"></path>
                    </g>
                </g>
            </g>
        </g>
    </g>
</svg>