<?xml version="1.0" encoding="UTF-8"?>
<svg width="41px" height="68px" viewBox="0 0 41 68" version="1.1" xmlns="http://www.w3.org/2000/svg" xmlns:xlink="http://www.w3.org/1999/xlink">
    <!-- Generator: Sketch 60.1 (88133) - https://sketch.com -->
    <title>Group 36</title>
    <desc>Created with Sketch.</desc>
    <g id="Page-1" stroke="none" stroke-width="1" fill="none" fill-rule="evenodd">
        <g id="Buttons-Copy" transform="translate(-545.000000, -872.000000)">
            <g id="Group-36" transform="translate(546.000000, 873.000000)">
                <path d="M5.728,38 L5.728223,42.44 L9.729,42.44 L9.729,45 L4.8641115,45 C4.3868759,45 4,44.4269245 4,43.72 L4,38 L5.728,38 Z M35,38 L35,43.72 C35,44.4269245 34.6131241,45 34.1358885,45 L29.735,45 L29.735,42.44 L33.271777,42.44 L33.271,38 L35,38 Z M9.729,13 L9.729,15.56 L5.728223,15.56 L5.728,20 L4,20 L4,14.28 C4,13.5730755 4.3868759,13 4.8641115,13 L9.729,13 Z M34.1358885,13 C34.6131241,13 35,13.5730755 35,14.28 L35,20 L33.271,20 L33.271777,15.56 L29.735,15.56 L29.735,13 L34.1358885,13 Z" id="Combined-Shape" fill="#B4BECC" fill-rule="nonzero"></path>
                <g id="package-(1)" transform="translate(7.000000, 15.000000)" fill="#B4BECC" fill-rule="nonzero">
                    <path d="M24.9885374,6.36534403 C24.9885374,6.2627691 24.9656121,6.16019417 24.9197616,6.06331786 C24.8280605,5.86956522 24.6503897,5.73849726 24.455525,5.69860701 L12.7808345,0.0683832841 C12.5917011,-0.022794428 12.3681797,-0.022794428 12.1790463,0.0683832841 L0.389729482,5.74989447 C0.160476845,5.858168 0.0114626318,6.08611228 0,6.3425496 L0,6.34824821 C0,6.35394681 0,6.35964542 0,6.37104263 L0,20.6289574 C0,20.8910933 0.149014214,21.1304348 0.389729482,21.2444069 L12.1790463,26.9259181 C12.1847776,26.9259181 12.1847776,26.9259181 12.1905089,26.9316167 C12.2077029,26.9373153 12.2248968,26.9430139 12.2420908,26.9544111 C12.2478221,26.9544111 12.2535534,26.9601098 12.265016,26.9601098 C12.28221,26.9658084 12.2994039,26.971507 12.3165979,26.9772056 C12.3223292,26.9772056 12.3280605,26.9829042 12.3337918,26.9829042 C12.3509858,26.9886028 12.373911,26.9886028 12.391105,26.9943014 C12.3968363,26.9943014 12.4025676,26.9943014 12.4082989,26.9943014 C12.4312242,26.9943014 12.4598808,27 12.4828061,27 C12.5057313,27 12.5343879,27 12.5573132,26.9943014 C12.5630445,26.9943014 12.5687758,26.9943014 12.5745071,26.9943014 C12.5917011,26.9943014 12.6146263,26.9886028 12.6318203,26.9829042 C12.6375516,26.9829042 12.6432829,26.9772056 12.6490142,26.9772056 C12.6662082,26.971507 12.6834021,26.9658084 12.7005961,26.9601098 C12.7063274,26.9601098 12.7120587,26.9544111 12.7235213,26.9544111 C12.7407153,26.9487125 12.7579092,26.9430139 12.7751032,26.9316167 C12.7808345,26.9316167 12.7808345,26.9316167 12.7865658,26.9259181 L24.6102705,21.2273111 C24.8452545,21.113339 25,20.8739975 25,20.6118615 L25,6.38243985 C24.9885374,6.37674124 24.9885374,6.37104263 24.9885374,6.36534403 Z M12.4770747,1.44174757 L22.7017423,6.37104263 L18.9362678,8.18889827 L8.71160018,3.25960321 L12.4770747,1.44174757 Z M12.4770747,11.3003377 L2.25240715,6.37104263 L7.13548831,4.01751794 L17.3601559,8.946813 L12.4770747,11.3003377 Z M1.37551582,7.47087379 L11.7893168,12.4913466 L11.7893168,25.216336 L1.37551582,20.1958632 L1.37551582,7.47087379 Z M13.1648326,25.216336 L13.1648326,12.4913466 L18.0536451,10.1321233 L18.0536451,13.4601098 C18.0536451,13.8362178 18.3631362,14.1439426 18.741403,14.1439426 C19.1196699,14.1439426 19.4291609,13.8362178 19.4291609,13.4601098 L19.4291609,9.46538624 L23.6130215,7.44807936 L23.6130215,20.1730688 L13.1648326,25.216336 Z" id="Shape"></path>
                </g>
                <rect id="Rectangle" stroke="#B4BECC" stroke-width="2" x="0" y="0" width="39" height="66" rx="4"></rect>
                <line x1="0.5" y1="58.5" x2="39.5" y2="58.5" id="Line-7" stroke="#B4BECC" stroke-linecap="square"></line>
            </g>
        </g>
    </g>
</svg>