<?xml version="1.0" encoding="UTF-8"?>
<svg width="80px" height="77px" viewBox="0 0 80 77" version="1.1" xmlns="http://www.w3.org/2000/svg" xmlns:xlink="http://www.w3.org/1999/xlink">
    <!-- Generator: Sketch 60.1 (88133) - https://sketch.com -->
    <title>Group 35</title>
    <desc>Created with Sketch.</desc>
    <g id="Page-1" stroke="none" stroke-width="1" fill="none" fill-rule="evenodd">
        <g id="Icon-library" transform="translate(-526.000000, -780.000000)">
            <g id="Group-35" transform="translate(526.000000, 780.000000)">
                <g id="open-cardboard-box" transform="translate(0.000000, 9.000000)" fill="#B4BECC" fill-rule="nonzero">
                    <path d="M79.9819386,14.2510587 C79.9139384,13.8604186 79.6572105,13.5292317 79.2964823,13.3665561 L49.9229526,0.105583027 C49.4953151,-0.0877309362 48.9940411,-0.011499581 48.6429493,0.300720706 L40.0000181,7.9741908 L31.3570869,0.300720706 C31.0061769,-0.0113172094 30.5047211,-0.0877309362 30.0772654,0.105583027 L0.703372094,13.3665561 C0.343007535,13.5292317 0.0860977867,13.8604186 0.017915794,14.2510587 C-0.0502661986,14.6413341 0.0786432222,15.0403633 0.362280312,15.316474 L9.64103133,24.344236 L4.40938158,33.6098107 C4.08556257,34.183552 4.28519944,34.9119444 4.85610999,35.2385721 L9.94048664,38.1492238 L9.94048664,50.0528046 C9.94048664,50.4799191 10.1673963,50.8747537 10.5357609,51.0883109 L39.4027439,67.8391482 C39.5876534,67.9462004 39.7936539,68 40.0001999,68 C40.1971095,68 40.3938373,67.9498478 40.5722014,67.8519142 C40.5718378,67.8526437 40.5707468,67.8537379 40.570565,67.8544674 L69.4642753,51.0884933 C69.8326399,50.8749361 70.0595496,50.4801014 70.0595496,50.052987 L70.0595496,38.1494062 L75.1442899,35.2387544 C75.7152004,34.9121268 75.9146555,34.1837344 75.5906546,33.6099931 L70.3593685,24.3444184 L79.6377559,15.3166563 C79.921393,15.0403633 80.0504842,14.6413341 79.9819386,14.2510587 Z M50.6567726,32.8267068 L41.1927484,27.3280188 L41.1927484,11.5129306 L66.3071763,24.1775483 L50.6567726,32.8267068 Z M13.6928599,24.1777307 L38.8076514,11.5129306 L38.8076514,27.3280188 L29.3432636,32.8267068 L13.6928599,24.1777307 Z M3.28410597,14.8255294 L30.3530843,2.60516904 L37.8901945,9.29656773 L11.3550357,22.6779061 L3.28410597,14.8255294 Z M7.07120657,33.7516959 L11.5901272,25.7479507 L38.2101953,40.4589609 L32.3041802,48.1964435 L7.07120657,33.7516959 Z M38.8074696,64.7289819 L12.3259473,49.3627103 L12.3259473,39.5150052 L32.0265432,50.7926865 C32.21218,50.8990091 32.4154532,50.9500732 32.6170901,50.9500732 C32.9776365,50.9500732 33.332001,50.7859387 33.5650925,50.4808309 L38.8074696,43.6128965 L38.8074696,64.7289819 L38.8074696,64.7289819 Z M40.0000181,38.7162173 L31.7825425,34.1749805 L40.0000181,29.4004904 L48.2174937,34.1749805 L40.0000181,38.7162173 Z M67.6739071,49.3627103 L41.1927484,64.7289819 L41.1927484,43.6127141 L46.4351255,50.4806486 C46.6678534,50.7857563 47.0222179,50.9498908 47.3831279,50.9498908 C47.5842193,50.9498908 47.788038,50.8988268 47.9736749,50.7925041 L67.6739071,39.5148228 L67.6739071,49.3627103 Z M72.9290115,33.7516959 L47.6960378,48.1962611 L41.7898409,40.4587786 L68.4100908,25.7477683 L72.9290115,33.7516959 Z M68.6451823,22.6779061 L42.1098417,9.29656773 L49.6465882,2.60516904 L76.7159302,14.8255294 L68.6451823,22.6779061 Z" id="Shape"></path>
                </g>
                <circle id="Oval" fill="#FFFFFF" cx="41" cy="14" r="13"></circle>
                <g id="Group-12" transform="translate(27.000000, 0.000000)" fill="#B4BECC" fill-rule="nonzero">
                    <path d="M14,0 C21.7319865,0 28,6.2680135 28,14 C28,21.7319865 21.7319865,28 14,28 C6.2680135,28 0,21.7319865 0,14 C0,6.2680135 6.2680135,0 14,0 Z M14,1.79487179 C7.25929382,1.79487179 1.79487179,7.25929382 1.79487179,14 C1.79487179,20.7407062 7.25929382,26.2051282 14,26.2051282 C20.7407062,26.2051282 26.2051282,20.7407062 26.2051282,14 C26.2051282,7.25929382 20.7407062,1.79487179 14,1.79487179 Z" id="Oval"></path>
                    <polygon id="Shape" points="21 10.7368421 11.6666667 20 7 15.3684211 8.75 13.6315789 11.6666667 16.5263158 19.25 9"></polygon>
                </g>
            </g>
        </g>
    </g>
</svg>